<?xml version="1.0" encoding="UTF-8"?>
<svg id="Layer_2" data-name="Layer 2" xmlns="http://www.w3.org/2000/svg" viewBox="0 0 142.63 70.07">
  <defs>
    <style>
      .cls-1 {
        fill: #fff;
      }

      .cls-2 {
        fill: #e51f2b;
      }
    </style>
  </defs>
  <g id="Layer_1-2" data-name="Layer 1">
    <g>
      <rect class="cls-1" y="40.16" width="142.63" height="29.91"/>
      <rect class="cls-1" width="142.63" height="28.1"/>
      <rect class="cls-2" x="5.92" y="5.47" width="130.76" height="59.13"/>
      <polygon class="cls-1" points="59.16 40.9 83.19 40.9 83.19 35.95 66.09 35.95 66.09 31.82 82.18 31.82 82.18 27.07 66.09 27.07 66.09 22.93 83.19 22.93 83.19 17.98 59.16 17.98 59.16 40.9"/>
      <path class="cls-1" d="M36.72,17.98l-10.41,22.92h7.64l1.59-3.78h12.06l1.57,3.78h7.65l-10.31-22.92h-9.78ZM37.58,32.17l3.86-9.3h.22l3.87,9.3h-7.95Z"/>
      <path class="cls-1" d="M106.01,17.98h-9.79l-10.41,22.92h7.65l1.58-3.78h12.05l1.57,3.78h7.65l-10.3-22.92ZM97.1,32.17l3.86-9.3h.22l3.87,9.3h-7.95Z"/>
      <rect x="26.15" y="43.95" width="90.32" height="8.14"/>
      <polygon class="cls-1" points="36.05 49.2 39.12 49.2 39.12 50.27 34.64 50.27 34.64 45.85 36.05 45.85 36.05 49.2"/>
      <rect class="cls-1" x="45.97" y="45.85" width="1.41" height="4.42"/>
      <polygon class="cls-1" points="55.99 50.27 54.61 50.27 54.61 45.85 56.7 45.85 58.34 48.61 60.02 45.85 62.08 45.85 62.08 50.27 60.71 50.27 60.71 47.12 58.8 50.27 57.88 50.27 55.99 47.12 55.99 50.27"/>
      <rect class="cls-1" x="69.32" y="45.85" width="1.41" height="4.42"/>
      <polygon class="cls-1" points="80.98 50.27 79.57 50.27 79.57 46.94 77.64 46.94 77.64 45.85 82.91 45.85 82.91 46.94 80.98 46.94 80.98 50.27"/>
      <polygon class="cls-1" points="94.81 46.93 91.17 46.93 91.17 47.59 94.6 47.59 94.6 48.53 91.17 48.53 91.17 49.2 94.87 49.2 94.87 50.27 89.76 50.27 89.76 45.85 94.81 45.85 94.81 46.93"/>
      <path class="cls-1" d="M105.97,45.85c.71,0,1.22.11,1.54.35.32.24.48.61.48,1.13v1.52c0,.49-.13.85-.39,1.07-.26.23-.66.34-1.22.34h-4.47v-4.42h4.06ZM105.54,46.94h-2.21v2.26h2.39c.3,0,.52-.07.66-.17.14-.11.21-.3.21-.55v-.77c0-.26-.08-.46-.26-.57-.17-.13-.43-.19-.79-.19"/>
    </g>
  </g>
</svg>