<?xml version="1.0" encoding="UTF-8"?>
<svg id="Layer_2" data-name="Layer 2" xmlns="http://www.w3.org/2000/svg" viewBox="0 0 184.3 183.94">
  <defs>
    <style>
      .cls-1 {
        fill: #fff;
      }
    </style>
  </defs>
  <g id="Layer_1-2" data-name="Layer 1">
    <path class="cls-1" d="M160.54,0c4.29.93,8.17,2.06,11.85,4.52,6.61,4.43,10.57,11.41,11.91,19.19v136.52c-1.34,7.78-5.3,14.76-11.91,19.19-2.6,1.74-8.98,4.52-12.03,4.52h-51.65v-65.39h27.72l3.6-21.56h-31.32v-23.53c0-1.12,2.15-4.66,3.05-5.58.96-.98,4.55-3.22,5.77-3.22h23.58v-21.56h-29.34c-11.38,0-24.66,13.25-24.66,24.61v29.28h-21.6v21.56h21.6v65.39H23.94c-3.04,0-9.42-2.78-12.03-4.52-6.61-4.43-10.57-11.41-11.91-19.19V23.71C1.63,11.85,11.63,1.3,23.76,0h136.79ZM119.51,173.16h39.06c6.3,0,13.32-6.39,14.49-12.49.75-45.71.75-91.7,0-137.41-1.51-5.97-6.08-10.53-12.06-12.04-45.8-.75-91.88-.75-137.68,0-5.99,1.51-10.55,6.06-12.06,12.04-.75,45.71-.75,91.71,0,137.41,1.17,6.09,8.18,12.49,14.49,12.49h50.57v-43.83h-21.6v-43.11h21.6c.31-9.36-1.07-18.79,1.79-27.86,4.52-14.31,18.01-24.72,32.95-26.03h40.85s0,43.11,0,43.11h-32.4v10.78h33.48l-7.2,43.11h-26.28v43.83Z"/>
  </g>
</svg>