<?xml version="1.0" encoding="UTF-8"?>
<svg id="Layer_2" data-name="Layer 2" xmlns="http://www.w3.org/2000/svg" viewBox="0 0 186 72.14">
  <defs>
    <style>
      .cls-1 {
        fill: #fff;
      }
    </style>
  </defs>
  <g id="Layer_1-2" data-name="Layer 1">
    <g>
      <polygon class="cls-1" points="70.08 12.4 78.95 12.4 78.95 15.45 73.43 15.45 73.43 21.4 77.76 21.4 77.76 24.44 73.43 24.44 73.43 33.74 70.08 33.74 70.08 12.4"/>
      <g>
        <path class="cls-1" d="M81.63,32.64c-.87-.93-1.31-2.25-1.31-3.96v-11.22c0-1.71.44-3.03,1.31-3.96.87-.94,2.13-1.4,3.78-1.4s2.91.47,3.78,1.4c.87.93,1.31,2.25,1.31,3.96v11.22c0,1.71-.44,3.03-1.31,3.96-.88.94-2.14,1.4-3.78,1.4s-2.91-.47-3.78-1.4M87.15,28.89v-11.65c0-1.4-.58-2.11-1.74-2.11s-1.74.7-1.74,2.11v11.65c0,1.4.58,2.1,1.74,2.1s1.74-.7,1.74-2.1"/>
        <path class="cls-1" d="M92.76,12.4h4.97c1.73,0,2.99.4,3.78,1.2.79.8,1.19,2.04,1.19,3.7v1.31c0,2.22-.73,3.62-2.2,4.21v.06c.81.24,1.39.74,1.72,1.5.33.75.5,1.76.5,3.02v3.75c0,.61.02,1.1.06,1.48.04.38.14.75.3,1.11h-3.41c-.12-.35-.21-.67-.25-.98-.04-.3-.06-.85-.06-1.65v-3.9c0-.97-.16-1.66-.47-2.04-.32-.39-.86-.58-1.63-.58h-1.16v9.15h-3.35V12.4ZM97.34,21.55c.67,0,1.17-.17,1.51-.52.33-.35.5-.93.5-1.74v-1.64c0-.77-.13-1.33-.41-1.68-.28-.35-.71-.52-1.3-.52h-1.53v6.1h1.22Z"/>
      </g>
      <path class="cls-1" d="M112.52,12.4h4.55l3.48,21.34h-3.36l-.61-4.24v.06h-3.81l-.61,4.18h-3.11l3.48-21.34ZM116.18,26.67l-1.49-10.55h-.06l-1.46,10.55h3.02Z"/>
      <polygon class="cls-1" points="122.15 12.4 131.03 12.4 131.03 15.45 125.51 15.45 125.51 21.4 129.84 21.4 129.84 24.44 125.51 24.44 125.51 33.74 122.15 33.74 122.15 12.4"/>
      <path class="cls-1" d="M132.64,12.4h4.97c1.73,0,2.99.4,3.78,1.2.79.8,1.19,2.04,1.19,3.7v1.31c0,2.22-.73,3.62-2.19,4.21v.06c.81.24,1.39.74,1.72,1.5.34.75.5,1.76.5,3.02v3.75c0,.61.02,1.1.06,1.48.04.38.14.75.3,1.11h-3.41c-.12-.35-.2-.67-.24-.98-.04-.3-.06-.85-.06-1.65v-3.9c0-.97-.15-1.66-.47-2.04-.31-.39-.86-.58-1.63-.58h-1.16v9.15h-3.35V12.4ZM137.22,21.55c.67,0,1.17-.17,1.51-.52.33-.35.5-.93.5-1.74v-1.64c0-.77-.14-1.33-.41-1.68-.27-.35-.71-.52-1.3-.52h-1.52v6.1h1.22Z"/>
      <rect class="cls-1" x="144.93" y="12.4" width="3.35" height="21.34"/>
      <path class="cls-1" d="M151.83,32.67c-.85-.91-1.26-2.2-1.26-3.87v-11.47c0-1.67.42-2.96,1.26-3.87.84-.91,2.07-1.37,3.68-1.37s2.83.46,3.67,1.37c.85.92,1.27,2.21,1.27,3.87v2.26h-3.17v-2.47c0-1.32-.56-1.98-1.68-1.98s-1.68.66-1.68,1.98v11.92c0,1.3.56,1.95,1.68,1.95s1.68-.65,1.68-1.95v-3.26h3.17v3.02c0,1.67-.42,2.96-1.27,3.87-.84.92-2.07,1.37-3.67,1.37s-2.84-.46-3.68-1.37"/>
      <path class="cls-1" d="M165.05,12.4h4.54l3.47,21.34h-3.35l-.61-4.24v.06h-3.81l-.61,4.18h-3.11l3.48-21.34ZM168.71,26.67l-1.5-10.55h-.06l-1.46,10.55h3.02Z"/>
      <path class="cls-1" d="M70.08,37.34h5.06c1.73,0,2.99.4,3.78,1.2.79.8,1.19,2.04,1.19,3.71v.85c0,1.1-.18,1.99-.53,2.69-.36.69-.9,1.19-1.63,1.49v.06c1.67.57,2.5,2.05,2.5,4.45v1.83c0,1.64-.43,2.9-1.3,3.76-.86.87-2.13,1.3-3.79,1.3h-5.27v-21.34ZM74.74,46.03c.67,0,1.17-.18,1.51-.52.34-.35.51-.93.51-1.74v-1.19c0-.77-.14-1.33-.41-1.68-.28-.35-.71-.52-1.3-.52h-1.61v5.64h1.31ZM75.35,55.63c.59,0,1.03-.16,1.31-.47.29-.32.43-.86.43-1.63v-1.86c0-.97-.17-1.65-.5-2.03-.34-.38-.89-.56-1.66-.56h-1.49v6.56h1.92Z"/>
      <polygon class="cls-1" points="85.02 49.6 80.96 37.34 84.53 37.34 86.82 45.18 86.88 45.18 89.17 37.34 92.43 37.34 88.37 49.6 88.37 58.68 85.02 58.68 85.02 49.6"/>
      <path class="cls-1" d="M101.39,37.34h4.54l3.47,21.34h-3.35l-.61-4.24v.06h-3.81l-.61,4.18h-3.11l3.48-21.34ZM105.05,51.61l-1.5-10.55h-.06l-1.46,10.55h3.02Z"/>
      <polygon class="cls-1" points="111.02 37.34 119.9 37.34 119.9 40.39 114.38 40.39 114.38 46.34 118.71 46.34 118.71 49.38 114.38 49.38 114.38 58.68 111.02 58.68 111.02 37.34"/>
      <path class="cls-1" d="M121.51,37.34h4.97c1.73,0,2.99.4,3.78,1.2.79.8,1.19,2.04,1.19,3.7v1.31c0,2.22-.73,3.62-2.2,4.21v.06c.81.24,1.39.74,1.72,1.5.33.75.5,1.76.5,3.02v3.75c0,.61.02,1.1.06,1.48.04.38.14.75.3,1.11h-3.41c-.12-.35-.21-.67-.25-.98-.04-.3-.06-.85-.06-1.65v-3.9c0-.97-.16-1.66-.47-2.04-.32-.39-.86-.58-1.63-.58h-1.16v9.15h-3.35v-21.34ZM126.09,46.49c.67,0,1.17-.17,1.51-.52.33-.35.5-.92.5-1.74v-1.64c0-.78-.14-1.33-.41-1.68-.27-.35-.71-.52-1.29-.52h-1.53v6.1h1.22Z"/>
      <rect class="cls-1" x="133.8" y="37.34" width="3.35" height="21.34"/>
      <path class="cls-1" d="M140.71,57.62c-.85-.91-1.27-2.21-1.27-3.87v-11.46c0-1.67.42-2.96,1.27-3.87.84-.91,2.07-1.37,3.68-1.37s2.83.46,3.67,1.37c.84.92,1.27,2.2,1.27,3.87v2.26h-3.17v-2.47c0-1.32-.56-1.98-1.68-1.98s-1.68.66-1.68,1.98v11.92c0,1.3.56,1.95,1.68,1.95s1.68-.65,1.68-1.95v-3.26h3.17v3.02c0,1.67-.42,2.96-1.27,3.87-.84.91-2.07,1.37-3.67,1.37s-2.83-.46-3.68-1.37"/>
      <path class="cls-1" d="M153.92,37.34h4.55l3.47,21.34h-3.36l-.61-4.24v.06h-3.81l-.61,4.18h-3.11l3.48-21.34ZM157.58,51.61l-1.5-10.55h-.06l-1.46,10.55h3.02Z"/>
      <polygon class="cls-1" points="163.56 37.34 167.76 37.34 171.03 50.11 171.09 50.11 171.09 37.34 174.07 37.34 174.07 58.68 170.63 58.68 166.6 43.1 166.55 43.1 166.55 58.68 163.56 58.68 163.56 37.34"/>
      <g>
        <path class="cls-1" d="M177.25,57.6c-.84-.92-1.25-2.25-1.25-3.98v-1.22h3.17v1.46c0,1.38.58,2.07,1.74,2.07.57,0,1-.17,1.3-.5.29-.33.44-.88.44-1.63,0-.89-.2-1.68-.61-2.36-.41-.68-1.16-1.5-2.26-2.46-1.38-1.22-2.35-2.32-2.9-3.31-.55-.99-.82-2.1-.82-3.34,0-1.69.42-2.99,1.28-3.92.85-.92,2.09-1.39,3.72-1.39s2.82.46,3.64,1.39c.82.93,1.24,2.25,1.24,3.98v.88h-3.17v-1.1c0-.73-.14-1.27-.43-1.6-.28-.33-.7-.5-1.25-.5-1.12,0-1.68.68-1.68,2.04,0,.77.21,1.49.63,2.17.42.67,1.17,1.48,2.27,2.44,1.4,1.22,2.37,2.33,2.9,3.32.53,1,.79,2.17.79,3.51,0,1.75-.43,3.09-1.3,4.03-.86.93-2.12,1.4-3.77,1.4s-2.86-.46-3.69-1.39"/>
        <path class="cls-1" d="M27.12,4.76c.1-.05.12-.06.14-.06,1.71-.12,1.92.13,2.39,2.15.58,2.53,1.16,5.08,2.52,7.32.61,1,1.48,1.86,2.25,2.76.87,1.01,1.59,2.1,2.05,3.35.45,1.22,1.12,2.29,2.2,3.01.95.63,1.34,1.5,1.3,2.53-.07,1.77.68,3.3,1.23,4.89.13.39.36.75.45,1.15.24,1.01.93,1.58,1.83,1.97.84.36,1.66.78,2.5,1.13.2.08.46.01.76.01-.23-.85-.64-1.47-1.31-1.87-1.67-.99-2.52-2.6-3.27-4.27-.74-1.62-1.35-3.3-2.07-4.93-.26-.6-.66-1.13-.99-1.69-.12-.21-.33-.42-.34-.63-.05-.64-.37-1.05-.82-1.48-.38-.37-.59-.9-.91-1.33-.65-.88-1.24-1.81-1.98-2.59-1.11-1.17-1.85-2.53-2.32-4.04-.55-1.77-1-3.57-1.5-5.36-.02-.08,0-.18,0-.32.87.56,1.69,1.12,2.84.75.15.71.28,1.43.45,2.13.48,2,1.26,3.86,2.68,5.39.29.31.68.53,1.02.79.16.13.35.25.46.41.09.14.13.38.06.51-.06.12-.33.24-.44.2-.35-.13-.74-.27-.99-.52-.75-.77-1.45-1.59-2.28-2.32.18.3.35.61.55.9.56.78,1.12,1.57,1.7,2.33.25.32.53.68.89.86,1.65.89,2.52,2.22,2.84,4.09.42,2.47,1.62,4.61,3.29,6.45.71.79,1.56,1.46,2.37,2.16,1.07.92,1.76,2.12,2.38,3.34,1.15,2.24,2.25,4.5,3.38,6.75.09.19.25.34.3.54.04.17.03.39-.03.56-.11.29-.28.56-.46.91-.33-.54-.69-1.06-.97-1.61-1.1-2.2-2.97-3.31-5.31-3.63-1.41-.19-2.53-.84-3.62-1.69-.99-.78-2.03-1.57-3.33-1.7-1.12-.12-2.27-.04-3.41-.03-.72,0-1.43.09-2.15.04-.24-.02-.52-.29-.69-.51-.54-.71-1.14-1.3-1.94-1.7-1.04-.51-2-1.12-2.36-2.3-.19-.64-.25-1.32-.34-1.99-.31-2.27-.67-4.52-2.08-6.43-1.01-1.36-2.13-2.55-3.83-3.14-1.83-.63-3.1-1.97-3.96-3.68-1.88-3.75-3.74-7.51-5.6-11.27-.09-.18-.12-.38-.2-.62.42,0,.79.05,1.14-.01.31-.06.6-.26.97-.43.04,1.75.74,3.27,1.67,4.7.9,1.4,1.59,2.97,2.98,4,.08-.04.16-.08.24-.13-.28-.7-.47-1.45-.85-2.09-1.25-2.09-1.97-4.38-2.62-6.7-.09-.32-.06-.53.34-.62.58-.15,1.15-.34,1.71-.55.37-.14.47-.08.55.33.42,2.15.89,4.3,1.35,6.45.37,1.71.72,3.41,1.13,5.1.31,1.27,1.04,2.3,2.15,3.02.16.1.48.14.6.05.12-.09.14-.39.14-.59,0-.63.01-1.25-.06-1.87-.06-.51-.2-1.02-.35-1.52-.18-.55-.42-1.08-.61-1.63-.31-.9-.66-1.8-.88-2.72-.21-.86-.17-1.78-.4-2.62-.35-1.32-.84-2.6-1.26-3.9-.02-.07-.06-.13-.08-.18h1.6c.3.94.63,2.01.96,3.08.4,1.27.79,2.54,1.19,3.81.72,2.26,1.43,4.53,2.17,6.79,1.03,3.16,2.05,6.32,3.14,9.46.47,1.35,1.05,2.65,1.67,3.94.71,1.46,1.91,2.45,3.33,3.2.15.08.32.13.48.13.9.01,1.79,0,2.75-.1-.31-.26-.6-.56-.94-.76-1.63-.96-2.62-2.47-3.61-4-.69-1.06-1.02-2.24-1.25-3.47-.32-1.7-1.27-3.09-2.4-4.35-1.24-1.38-1.9-3.01-2.27-4.79-.17-.85-.32-1.7-.46-2.55-.03-.22,0-.45,0-.68l.17-.08c.13.23.28.45.38.69.37.88.64,1.82,1.11,2.64.7,1.18,1.47,2.34,2.35,3.39,1.25,1.48,1.98,3.18,2.59,4.97.6,1.74,1.21,3.5,2.59,4.83.7.67,1.53,1.22,2.24,1.88.33.31.55.76.74,1.18.35.77.74,1.5,1.5,2.13-.49-1.97-.92-3.81-1.42-5.62-.1-.38-.46-.7-.72-1.03-.65-.85-1.39-1.64-1.96-2.54-1.06-1.65-1.9-3.44-3.25-4.89-2.44-2.65-3.82-5.88-4.96-9.23-.35-1.03-.59-2.09-.86-3.15-.05-.19-.05-.4-.07-.61M50.61,54.41c.14-.11.32-.33.3-.47-.33-1.86-.81-3.67-2-5.21-1.06-1.37-2.1-2.75-2.75-4.39-.32-.8-.95-1.36-1.8-1.6-.58-.16-1.18-.26-1.77-.34-.99-.14-2.02-.12-2.97-.39-.87-.24-1.66-.32-2.54-.12-.53.12-1.18.12-1.67-.09-1.48-.63-2.65-1.73-3.11-3.26-.77-2.6-2.52-4.4-4.46-6.11-.5-.43-1-.81-1.19-1.51-.31-1.21-.73-2.4-1.03-3.61-.37-1.49-.66-3-1.02-4.49-.17-.72-.41-1.44-1.19-1.75-.32-.13-.69-.13-1.04-.22-.91-.25-1.82-.53-2.73-.78-.93-.26-1.83-.44-2.63-1.13-1.84-1.57-2.99-3.5-3.67-5.77-.52-1.7-1.05-3.4-2.47-4.63-.44-.38-.94-.71-1.34-1.13-.67-.71-1.28-1.48-1.93-2.25-.03.03-.11.08-.17.15-.49.52-.74,1.12-.7,1.85.03.5-.2,1.08-.01,1.49.75,1.6,1.52,3.2,2.46,4.69.69,1.09,1.67,2,2.47,3.02,1.77,2.27,3.79,4.19,6.62,5.05.16.05.3.15.42.26.87.79,1.85,1.26,3.06,1.38,1.2.13,1.73.46,1.87,1.83.09.87.31,1.74.43,2.61.1.74.15,1.49.21,2.23.06.79.03,1.6.17,2.37.37,2.06,1.02,4.04,1.86,5.95.8,1.8,1.61,3.6,2.43,5.39.12.26.3.53.51.73.62.58,1.27,1.13,1.91,1.7.63.55,1.33,1.01,2.2,1.05,1.32.06,2.42.67,3.44,1.42,2.79,2.07,4.36,4.9,4.92,8.29.35,2.16.79,4.29,1.75,6.27.48,1.01,1.02,2,1.55,3.01,1.38-1.07,2.07-2.14,1.13-3.04.13-.19.26-.41.42-.57.18-.18.42-.31.67-.5-2.74-2.19-4.67-4.58-3.98-8.32,1.39.88,2.32,1.96,2.91,3.37.58,1.38,1.22,2.75,1.86,4.11.08.17.3.28.46.42.13-.18.37-.35.37-.53,0-.51-.04-1.04-.18-1.53-.21-.76-.54-1.48-.79-2.23-.33-.99-.58-2.01-.97-2.99-.3-.74-.69-1.46-1.45-1.89-.73-.42-1.44-.89-2.14-1.36-.6-.41-1.02-.91-1.23-1.67-.44-1.57-1.48-2.62-3.17-2.79-.8-.08-1.53-.33-2.27-.62-.8-.31-1.65-.6-2.49-.64-.72-.04-1.24-.22-1.51-.84-.37-.83-.98-1.29-1.85-1.48-.54-.11-.87-.45-1.07-.98-.25-.65-.57-1.26-.91-1.87-.48-.85-1.04-1.66-1.5-2.52-.94-1.74-1.57-3.6-1.86-5.58.24.4.46.81.64,1.24.52,1.21,1.08,2.37,2.17,3.24.57.45.94,1.16,1.38,1.76.45.62.79,1.36,1.35,1.86,1.19,1.09,2.48,2.08,3.75,3.09.84.67,1.82.89,2.86,1.06,1.01.16,2.02.47,2.94.9.82.39,1.54,1.01,2.27,1.57,1.03.8,2.14,1.52,3,2.47,1.48,1.65,2.31,3.69,2.84,5.83.08.32.19.63.25.82.59-.46,1.15-.87,1.7-1.32M36.35,5.43c.54,1.38,1.11,2.74,1.6,4.14.33.97.49,2,.84,2.96.24.66.69,1.25,1.03,1.88.66,1.25,1.27,2.52,1.95,3.76.89,1.63.96,1.81.9,3.29-.13-.54-.16-.99-.34-1.37-.75-1.6-1.48-3.21-2.34-4.75-.86-1.54-1.91-2.99-2.79-4.52-.56-.96-.93-1.99-.88-3.16.03-.74-.12-1.5-.23-2.24-.04-.3-.17-.61-.6-.49-.41.11-.27.42-.25.69.03.49.06.98.08,1.46.02.52-.05,1.05.05,1.56.37,1.97,1.25,3.74,2.4,5.36,1.3,1.82,2.71,3.58,3.35,5.78.13.45.39.93.31,1.35-.11.64.05,1.17.31,1.68.37.72.73,1.46,1.23,2.08.45.57,1.08,1.01,1.64,1.5.08-.05.16-.09.24-.14-.67-2.24-1.62-4.44-1.48-6.85.12.15.21.31.27.48.57,1.59,1.1,3.2,1.73,4.76.29.72.77,1.38,1.2,2.03.27.4.62.75.9,1.14.29.4.5.84.79,1.23,1,1.38,1.93,2.78,2.48,4.42.41,1.24.84,2.49,1.33,3.71.42,1.04.94,2.03,1.45,3.13.25-.46.41-.8.61-1.11.22-.33.52-.6.72-.94.1-.17.1-.45.03-.65-1.05-3.16-3.37-5.59-4.91-8.48-1.14-2.13-2.66-4.06-3.4-6.4-.45-1.43-1.17-2.6-2.4-3.51-.54-.4-.85-1.12-1.24-1.71-.22-.33-.38-.69-.59-1.02-.45-.7-.91-1.38-1.36-2.07-.28-.44-.55-.9-.8-1.36-.34-.6-.79-1.19-.94-1.84-.35-1.5-.54-3.03-.84-4.54-.06-.31-.28-.62-.51-.86-.23-.25-.65-.36-.81-.64-.24-.4-.5-.46-1-.3.1.2.2.35.27.52M4.78,10.26c1.15,2.44,2.21,4.93,3.46,7.32.96,1.83,2.12,3.56,3.23,5.3,1.11,1.73,2.43,3.26,4.3,4.18,2.22,1.09,3.95,2.7,5.13,4.84.54.97,1.06,1.67,2.29,1.39.14-.03.31.04.51.07-.08-.86-.18-1.65-.21-2.46-.07-1.52-.51-2.86-1.72-3.84-1.07-.86-2.15-1.72-3.3-2.46-1.1-.71-2.3-1.27-3.44-1.92-1.8-1.02-3.39-2.29-4.33-4.18-1.24-2.49-2.42-5.01-3.63-7.51-.32-.67-.63-1.34-.94-2-.53.37-.97.69-1.43,1.02.02.07.04.16.08.24M40.25,65.86c-.21-.64-.43-1.3-.78-1.86-1.02-1.59-1.54-3.34-1.73-5.18-.14-1.41-.43-2.74-1.22-3.93-.36-.53-.73-1.06-1.13-1.64.19-.04.3-.1.4-.08,1.15.22,2.19.64,2.93,1.62.31.41.73.74,1.13,1.08.09.08.31.09.41.03.08-.06.12-.28.08-.39-.45-1.25-1.09-2.44-2.32-3.02-1.13-.53-2.36-.85-3.57-1.18-1.38-.38-2.47-1.07-3.23-2.33-.77-1.27-1.62-2.49-2.48-3.7-.39-.55-.9-1.01-1.36-1.52l-.14.1c.03.12.04.25.08.37.22.71.48,1.41.67,2.14.2.72.33,1.46.5,2.19.08.34.14.71.32,1,.39.64.83,1.26,1.3,1.85.75.94,1.37,2,2.52,2.55.49.24,1,.45,1.45.75.77.5,1.34,1.14,1.26,2.17-.04.62-.04,1.24,0,1.85.08,1.36.59,2.58,1.23,3.77.31.57.61,1.17.81,1.78.35,1.09.57,2.22.94,3.3.41,1.2.92,2.36,1.36,3.49.79-.23,1.46-.41,1.99-.56-.5-1.63-.93-3.14-1.42-4.63M53.25,49.71c-.08-.12-.18-.24-.25-.37-1.15-2.29-2.29-4.57-3.43-6.86-.73-1.45-1.65-2.74-3.25-3.29-1.71-.59-3.37-1.27-4.93-2.19-.65-.38-1.42-.5-2.04-.03-.88.67-1.62.57-2.56.07-.88-.47-1.89-.69-2.87-.97-.2-.06-.55.06-.69.21-.1.12,0,.48.11.66.2.32.46.6.72.88,1.38,1.56,3.57,2.53,5.78,1.29.72-.4,1.5-.17,2.17.33.86.66,1.76,1.24,2.86,1.38,1.3.17,2.16.91,2.74,2.02.66,1.24,1.26,2.52,1.95,3.75.97,1.74,1.76,3.53,2.19,5.48.11.53.29,1.06.47,1.7.47-.41.91-.7,1.22-1.08.39-.49.52-1.08.23-1.69-.05-.11-.1-.25-.1-.37.03-.9.01-1.81.15-2.69.09-.56-.08-.94-.35-1.36-.23-.36-.5-.71-.68-1.09-.27-.55-.41-1.16-.7-1.69-.46-.86-1-1.68-1.51-2.52-.58-.97-1.32-1.81-2.29-2.4-.27-.17-.62-.22-.93-.32,3.1,3.19,4.69,7.1,6.15,11.07-.06.02-.11.05-.16.07M39.62,7.04c.83,1.46,1.26,3.01,1.2,4.7-.02.52,0,1.09.18,1.57.35.92.81,1.81,1.28,2.68.35.64.92,1.18,1.17,1.85.21.56.49,1.01.95,1.27,1.07.61,1.64,1.57,2.3,2.55,1.13,1.71,2.49,3.26,3.83,4.82.77.89,1.4,1.83,1.76,2.93.87,2.63,1.42,5.38,2.7,7.86.1.19.15.4.23.61,1.37-1.03,1.42-.49.76-2-.6-1.38-1.25-2.72-1.44-4.25-.24-1.89-.89-3.64-2.07-5.17-.62-.79-1.28-1.55-1.84-2.37-1.07-1.54-2.02-3.14-2.72-4.9-.72-1.83-2.02-3.24-3.64-4.3-1.35-.88-2.06-2.12-2.45-3.6-.31-1.16-.52-2.34-.81-3.51-.22-.88-.57-1.68-1.78-1.65.13.32.22.62.38.9M43.22,11.12c.28.93.68,1.81,1.41,2.53.38.38.56.96.84,1.44.06.1.15.21.25.24.96.25,1.67.79,2.33,1.56,1.57,1.83,3.22,3.58,4.2,5.85.35.79,1.09,1.4,1.5,2.18,1.66,3.15,2.82,6.5,3.79,9.91.12.43.21.85.33,1.36.39-.29.72-.49.98-.75.14-.14.27-.43.23-.6-.49-1.98-.97-3.96-1.56-5.91-.36-1.2-.88-2.36-1.35-3.53-.07-.18-.25-.31-.4-.45-.22-.22-.54-.38-.68-.64-.41-.71-.97-1.23-1.69-1.61-.58-.3-.95-.76-1-1.47-.06-.78-.4-1.44-1.12-1.85-.6-.34-.87-.86-.81-1.56.03-.37.13-.87-.05-1.11-.57-.74-.94-1.72-2.05-1.88-.24-.04-.47-.14-.7-.22-.54-.19-.96-.5-1.3-1.01-.88-1.34-1.17-2.86-1.59-4.36-.25-.88-.56-1.74-.82-2.55-.66.09-1.22.17-1.82.25.35,1.4.66,2.81,1.08,4.19M3.14,10.63c-.46.77-.95,1.53-1.37,2.32-.1.18-.02.49.04.71.18.61.38,1.22.61,1.81.58,1.45,1.12,2.91,2.17,4.11,1.31,1.49,2.5,3.08,3.4,4.85,1.47,2.92,3.2,5.66,5.17,8.27.24.33.52.48.85.33.48-.22.92-.53,1.43-.82-.53-.82-.99-1.67-1.58-2.42-.73-.91-1.59-1.71-2.34-2.6-.72-.85-1.34-1.75-1.62-2.88-.5-2.03-1.42-3.87-2.89-5.36-1.49-1.52-2.44-3.27-2.86-5.34-.21-.99-.5-1.96-.76-2.93-.09-.01-.17-.03-.26-.04M26.88,51.58c-.34.45-.16.76.15,1.14.49.61.96,1.26,1.38,1.92.4.63.72,1.32,1.11,1.95.63,1.01,1.45,1.94,1.92,3.02,1.12,2.57,2.1,5.21,3.11,7.83.48,1.24.88,2.52,1.34,3.76.05.14.33.33.46.3.6-.13,1.19-.33,1.78-.51-1.12-1.1-1.76-2.45-2.09-4.06-.57-2.84-1.63-5.54-2.82-8.17-.49-1.1-1.03-2.16-2.03-2.95-.8-.63-1.31-1.54-1.54-2.51-.28-1.2-.8-2.19-1.93-2.98-.28.43-.54.86-.85,1.26M.2,17.83c.26.93.52,1.85.4,2.83-.05.33-.15.68-.1,1,.23,1.4.53,2.8.78,4.2.14.78.37,1.46,1.06,1.96.38.28.63.74.9,1.15.31.47.58.97.87,1.45.13-.14.15-.23.14-.32-.17-1.36-.32-2.73-.53-4.08-.34-2.14-.69-4.27-1.09-6.39-.14-.71-.33-1.45-.68-2.07-.39-.7-.99-1.27-1.56-1.97-.59.74-.39,1.5-.19,2.24M44.29,67.36c.22-.35.26-.7.05-1.1-.4-.76-.71-1.58-1.11-2.34-.83-1.58-1.68-3.14-2.55-4.69-.11-.2-.36-.33-.54-.5l-.18.14c.37,3.47,1.82,6.56,3.49,9.75.33-.48.6-.86.85-1.26M9.12,32.84c-.25-.71-.48-1.43-.79-2.11-.62-1.35-1.33-2.65-1.92-4-.65-1.5-1.2-3.03-1.82-4.54-.06-.15-.24-.26-.37-.39-.05.19-.18.41-.13.58.4,1.44.84,2.87,1.27,4.31.51,1.71,1.05,3.4,1.46,5.13.15.64.31,1.17.95,1.36.42.13.88.11,1.35.15,0-.23.03-.37,0-.48M10.54,1.61c-.28.41-.58.81-.83,1.24-.09.15-.11.41-.04.57.67,1.51,1.29,3.04,2.08,4.49.74,1.35,1.65,2.61,2.51,3.88.11.17.4.21.6.31.07-.24.15-.47.18-.72.01-.11-.08-.24-.15-.35-.56-1-1.16-1.97-1.68-3-.77-1.5-1.57-2.99-1.84-4.7-.09-.6-.4-1.16-.61-1.73-.07,0-.15.01-.22.01M34.69,72.04c-.43-.87-.87-1.73-1.29-2.61-.72-1.49-1.47-2.94-1.75-4.61-.2-1.19-.45-2.4-1.12-3.45-.44-.68-.91-1.34-1.36-2.01-.08.03-.16.06-.24.08.08.81.08,1.64.24,2.43.48,2.31,1.8,4.2,3.11,6.08.65.95.7,1.04.19,1.92.21.56.4,1.06.61,1.61.53.04.85.93,1.62.55M60.72,32.95c.37-.38.61-.76.9-1.1.48-.56.58-1.08.26-1.82-.45-1.01-.7-2.12-1.03-3.15h-2.29c.48,2.21,2.06,3.85,2.16,6.07M45.93,8.35l.17-.1c.45.62.91,1.24,1.4,1.93.08-.18.12-.23.11-.25-.34-.97-.67-1.94-1.01-2.91-.03-.1-.1-.21-.18-.26-.5-.26-1.01-.48-1.61-.29.11.4.2.79.33,1.16.52,1.42,1.05,2.84,1.6,4.25.3.76.91,1.15,1.83,1.21-.91-1.62-1.77-3.17-2.64-4.73M10.94,30.94c-1.06-1.34-2.09-2.71-2.53-4.42-.08-.28-.16-.62-.36-.81-.22-.2-.62-.4-.86-.33-.34.1-.41.5-.23.85.12.23.28.44.41.67,1.1,1.83,2.18,3.66,3.29,5.48.08.14.26.29.41.3.4.02.8-.02,1.26-.05-.47-.57-.94-1.13-1.39-1.7M24.03,3.19c.28.67.6,1.33.95,1.97.06.12.34.12.52.18.04-.17.14-.35.1-.5-.34-1.64-.71-3.27-1.06-4.84-.56.16-1.04.29-1.57.44.32.85.67,1.81,1.06,2.75M16.34,28.48c-.26,1.16.06,2.23.21,3.39.4-.13.71-.23,1.02-.34-.19-1.38-.72-2.74-1.23-3.05M24.57,37.03c-1.08.87-.78,2.19.91,3.57-.3-1.18-.6-2.37-.91-3.57M47.91,6.68c-.07-.08-.26-.14-.33-.1-.12.07-.3.26-.27.35.22.8.48,1.59.75,2.46.54-1.01.47-2.03-.15-2.72M63.09,26.19c.1.68.18,1.3.28,2,.67-.87.57-1.82-.28-2"/>
      </g>
    </g>
  </g>
</svg>