<?xml version="1.0" encoding="UTF-8"?>
<svg id="Layer_2" data-name="Layer 2" xmlns="http://www.w3.org/2000/svg" viewBox="0 0 182.66 182.64">
  <defs>
    <style>
      .cls-1 {
        fill: #fff;
      }
    </style>
  </defs>
  <g id="Layer_1-2" data-name="Layer 1">
    <g>
      <path class="cls-1" d="M158.74,182.64H23.9c-4.86-.9-8.98-2.47-12.96-5.41-6.01-4.45-9.49-10.85-10.94-18.13V23.54C2.15,11.15,11.84,1.46,24.44,0h133.76c12.98,1.49,23.4,12.06,24.46,25.13l-.02,132.71c-.94,12.19-11.64,23.56-23.89,24.8ZM25.61,10.8c-8.06.94-14.22,7.29-14.9,15.42.29,44.3-.6,88.72.45,132.95,1.49,6.02,6.07,10.56,12.02,12.24,45.21.92,90.78.78,136,.07,6.02-1.49,10.56-6.07,12.24-12.02.92-45.21.78-90.78.07-136-1.87-7.29-7.9-12.21-15.4-12.78l-130.47.12Z"/>
      <path class="cls-1" d="M102.03,69.2c4.33-2.37,9.16-4.04,14.09-4.63,19.31-2.34,38.05,10.8,39.43,30.84s-1.04,40.84-.01,60.66c-.38,2.89-2.32,4.56-5.16,4.83-5.12.48-17.1.56-22.13-.01-2.86-.33-4.57-2.35-4.83-5.16-1.45-15.55,1.58-33.7-.03-49.2-1.34-12.92-19.62-12.98-21.26-.3-1.3,15.92,1.39,33.81-.09,49.5-.26,2.8-1.95,4.83-4.83,5.16-5.03.57-17.01.49-22.13.01-2.99-.28-4.98-2.15-5.17-5.17v-86c.08-2.59,1.94-4.67,4.5-5.13,7.21.46,15.36-.71,22.46-.04,2.81.27,4.64,1.86,5.16,4.65ZM91.32,75.26h-10.7v74.91h10.7v-45.84c0-2.62,3.09-8.45,4.81-10.53,9.55-11.56,27.53-10.2,35.07,2.75.91,1.57,2.92,6.13,2.92,7.78v45.84h10.7v-54.4c0-1.29-1.18-5.13-1.72-6.49-5.98-14.99-26.73-18.38-38.76-8.67-2.84,2.29-4.42,6.06-8.84,5.26-1.53-.28-4.18-2.49-4.18-4.02v-6.6Z"/>
      <path class="cls-1" d="M31.3,64.64c7.23.56,16.44-1.04,23.43-.05,2.09.3,3.75,1.9,4.34,3.87l.15,87.6c-.23,2.25-1.74,4-3.9,4.66-7.28-.43-16.68,1.12-23.72.12-2.09-.3-3.75-1.9-4.34-3.87l-.15-87.6c.24-2.35,1.88-4.17,4.19-4.73ZM48.51,75.26h-10.7v74.91h10.7v-74.91Z"/>
      <path class="cls-1" d="M40.94,21.85c21.93-2.64,24.65,29.86,4.14,31.96-21.5,2.2-24.3-29.53-4.14-31.96ZM46.97,34c-4.92-4.92-12.53,2.68-7.6,7.6s12.53-2.68,7.6-7.6Z"/>
    </g>
  </g>
</svg>