<?xml version="1.0" encoding="UTF-8"?>
<svg id="Layer_2" data-name="Layer 2" xmlns="http://www.w3.org/2000/svg" viewBox="0 0 220.48 60.96">
  <defs>
    <style>
      .cls-1 {
        fill: #d91a21;
      }

      .cls-2 {
        fill: #fff;
      }
    </style>
  </defs>
  <g id="Layer_1-2" data-name="Layer 1">
    <polygon class="cls-2" points="0 21.75 0 25.65 6 25.65 6 42.56 12.27 42.56 12.27 25.65 18.27 25.65 18.27 21.75 0 21.75"/>
    <g>
      <path class="cls-2" d="M23.52,31.53h.06l.45-1.19c.27-.65.92-3,3.09-3,1.28,0,2.11.47,2.94,1.13l-1.84,4.33c-.39-.12-.74-.29-1.69-.29-1.37,0-3,.65-3,3.68v6.36h-5.95v-14.86h5.95v3.83Z"/>
      <path class="cls-2" d="M38.01,41.4c-1.16.59-2.59,1.51-3.95,1.51-2.05,0-4.31-1.78-4.31-4.43,0-3.18,1.81-4.72,5.89-5.73l3.42-.84c-.39-.8-1.45-1.48-2.44-1.48-1.63,0-2.91.71-3.92,1.6l-1.63-2.67c2.41-1.64,4.61-2.02,6.63-2.02,3.57,0,7.1,1.16,7.1,6.21v5.38c0,1.25.12,2.59.5,3.62h-6.18c-.15-.33-.26-1.07-.26-1.6l-.83.45ZM37.32,34.71c-1.28.44-2.2,1.57-2.2,2.97,0,.98.77,1.72,1.54,1.72,1.04,0,2.56-1.37,2.35-5.35l-1.69.66Z"/>
      <path class="cls-2" d="M53.94,29.36c1.25-1.37,2.74-2.02,4.96-2.02,3.48,0,5.32,1.9,5.32,5.65v9.57h-5.94v-9.33c0-.98-.56-2.17-1.9-2.17-1.55,0-2.38.98-2.38,2.82v8.68h-5.94v-14.86h5.88v1.66Z"/>
      <path class="cls-2" d="M76.09,31.05c-.95-.5-1.75-.68-2.2-.68-.89,0-1.22.38-1.22,1.07,0,1.1,1.49,1.84,3.12,3,2.44,1.78,2.05,3.75,2.05,4.01,0,1.49-1.99,4.46-6.12,4.46-1.76,0-3.98-.27-5.59-1.39l1.25-3.03c.9.54,2.23,1.31,3.21,1.31.86,0,1.4-.39,1.4-1.28s-1.4-1.72-2.88-2.7c-1.66-1.1-2.35-2.35-2.35-3.96,0-2.29,2.14-4.52,5.55-4.52,1.94,0,3.63.42,5.02,1.04l-1.25,2.68Z"/>
      <path class="cls-2" d="M96.85,41.99c-1.16.45-3.12.92-5.02.92-6.93,0-12.6-4.16-12.6-10.97,0-6.3,5.17-10.55,12.24-10.55,1.37,0,3.83.38,5.32,1.04l-1.55,3.69c-1.01-.3-2.85-.39-3.45-.39-3,0-6.03,1.93-6.03,6.45s3.06,6.39,6.33,6.39c1.34,0,2.58-.24,3.54-.48l1.22,3.89Z"/>
      <path class="cls-2" d="M104.96,35.84c0,2.44,1.78,3.54,3.48,3.54,1.57,0,2.94-.51,3.89-1.07l1.63,3.03c-2.79,1.33-5.29,1.57-7.19,1.57-4.28,0-8.05-3.71-8.05-8.08,0-3.68,2.7-7.49,8.35-7.49,4.79,0,7.4,3.3,6.89,8.5h-9ZM108.97,33.31c.15-2.44-.65-3.51-2.05-3.51-1.25,0-2.08,1.13-1.9,3.51h3.95Z"/>
      <path class="cls-2" d="M121.62,29.36c1.25-1.37,2.73-2.02,4.96-2.02,3.48,0,5.32,1.9,5.32,5.65v9.57h-5.94v-9.33c0-.98-.56-2.17-1.9-2.17-1.54,0-2.38.98-2.38,2.82v8.68h-5.94v-14.86h5.88v1.66Z"/>
      <path class="cls-2" d="M146.7,41.96c-1.54.65-3.48.95-5.2.95-3.75,0-5.17-1.72-5.17-4.75v-7.73h-2.08v-2.74h2.08v-3.57l5.94-.89v4.46h3.89v2.74h-3.89v5.68c0,2.94,1.25,3.62,2.05,3.62.65,0,1.1-.18,1.67-.42l.71,2.64Z"/>
      <path class="cls-2" d="M158.04,40.5h-.06c-1.25,1.58-2.82,2.41-4.99,2.41-3.09,0-4.93-1.9-4.93-5.65v-9.57h5.94v9.03c0,.98.54,2.2,1.9,2.2.6,0,2.08-.35,2.08-2.76v-8.47h5.95v14.86h-5.88v-2.05Z"/>
      <path class="cls-2" d="M172.55,31.53h.06l.44-1.19c.27-.65.92-3,3.09-3,1.28,0,2.11.47,2.94,1.13l-1.84,4.33c-.39-.12-.74-.29-1.69-.29-1.37,0-3,.65-3,3.68v6.36h-5.94v-14.86h5.94v3.83Z"/>
      <path class="cls-2" d="M185.95,27.4c.86,2.85,1.75,5.74,2.58,9.48h.06c.98-3.74,1.99-6.63,3-9.48l4.64.74-7.2,16.26c-1.28,2.85-3.15,5.59-7.25,5.59h-2.17v-3.65h1.04c1.49,0,3.33-.09,4.46-4.81l-5.14-13.4,5.97-.71Z"/>
      <path class="cls-1" d="M207.04,19.67V0h-5.21c0,.17,0,.35,0,.52,0,.48,0,.96,0,1.44,0,.72,0,1.44,0,2.16v2.6c0,.98,0,1.95,0,2.93,0,.98,0,1.97,0,2.95s0,1.88,0,2.81c0,.83,0,1.65,0,2.48,0,.61,0,1.21,0,1.82,0,.46-.01.92.03,1.37.04.4.2.77.3,1.15.13.44.29.86.47,1.28.22.48.46.93.74,1.38.32.52.66,1.02,1.04,1.5.43.55.88,1.08,1.36,1.58.54.55,1.12,1.07,1.74,1.53.7.52,1.44.97,2.22,1.34.9.43,1.84.76,2.8,1.01,1.11.3,2.24.51,3.38.66,1.26.17,2.52.29,3.78.4.06,0,.54.04.78.06v-4.67c-1.36.07-12.4-.33-13.43-8.64"/>
      <path class="cls-1" d="M213.89,18.68v-3.96h6.59v-5.23h-11.56v9.66s.62,7.6,11.56,7.6v-4.24c-.89-.04-5.77-.42-6.59-3.83"/>
      <path class="cls-2" d="M87.52,49.31l-1.69,8.89h1.1l1.69-8.89h-1.1ZM89.95,58.2l.59-3.21c.25-1.36,1.24-2.41,2.05-2.41s.95.55.95,1.09c0,.25-.03.5-.08.78l-.71,3.75h1.06l.62-3.27c.26-1.43,1.2-2.35,1.99-2.35.71,0,.96.43.96,1.11,0,.26-.04.59-.09.83l-.69,3.68h1.07l.71-3.78c.07-.35.11-.78.11-1.08,0-1.2-.8-1.68-1.54-1.68-.97.01-1.78.5-2.35,1.43-.05-.81-.51-1.43-1.49-1.43-.85,0-1.65.46-2.24,1.34h-.04l.17-1.2h-.96c-.07.53-.16,1.15-.29,1.86l-.86,4.53h1.07ZM100.06,60.82l.51-2.76h.03c.25.14.7.29,1.39.29,2.12,0,3.73-2.12,3.73-4.37,0-1.17-.58-2.31-1.96-2.31-.87,0-1.72.51-2.3,1.34h-.03l.18-1.2h-1c-.09.65-.22,1.51-.36,2.27l-1.28,6.73h1.08ZM101.09,55.35c.33-1.78,1.41-2.77,2.27-2.77.92,0,1.23.8,1.23,1.48,0,1.68-1.19,3.43-2.6,3.43-.52,0-.94-.13-1.21-.36l.32-1.78ZM111.73,58.2c-.03-.71.07-1.85.28-2.96l.65-3.32c-.44-.15-1.11-.25-1.71-.25-2.79,0-4.42,2.35-4.42,4.57,0,1.22.71,2.11,1.83,2.11.91,0,1.78-.47,2.48-1.79h.03c-.08.66-.14,1.26-.14,1.65h1.01ZM111.06,54.56c-.32,1.7-1.4,2.89-2.31,2.89-.85,0-1.1-.7-1.1-1.41.01-1.77,1.36-3.5,3.01-3.5.37,0,.6.05.76.09l-.37,1.93ZM117.66,57.08c-.33.16-.83.36-1.48.36-1.04,0-1.58-.67-1.58-1.7,0-1.51,1.04-3.14,2.7-3.14.48,0,.83.12,1.08.24l.32-.87c-.2-.11-.74-.28-1.33-.28-2.3,0-3.9,2.01-3.9,4.18,0,1.36.8,2.47,2.45,2.47.86,0,1.52-.22,1.85-.38l-.11-.87ZM120.76,50.38l-.28,1.44h-.91l-.17.86h.92l-.63,3.23c-.09.46-.13.83-.13,1.2,0,.65.37,1.24,1.35,1.24.32,0,.65-.04.84-.12l.05-.86c-.15.03-.33.04-.52.04-.42,0-.61-.23-.61-.61,0-.34.05-.67.12-1.03l.59-3.1h1.53l.17-.86h-1.53l.33-1.72-1.14.28ZM124.26,58.2l1.23-6.39h-1.1l-1.23,6.39h1.1ZM125.22,50.72c.42,0,.73-.3.74-.74,0-.4-.25-.69-.65-.69s-.72.32-.72.74c0,.4.25.69.63.69M127.28,58.2l.58-3.1c.29-1.58,1.4-2.52,2.18-2.52s1,.47,1,1.12c0,.26-.04.57-.09.82l-.7,3.68h1.1l.71-3.72c.07-.34.12-.75.12-1.03,0-1.35-.86-1.78-1.62-1.78-.94,0-1.8.5-2.36,1.4h-.02l.16-1.25h-.98c-.08.53-.16,1.15-.3,1.86l-.86,4.53h1.1ZM132.98,60.51c.41.26,1.13.45,1.91.45s1.6-.16,2.23-.71c.67-.57,1.03-1.51,1.29-2.85l.98-5.28c-.5-.24-1.31-.45-2.04-.45-2.47,0-4.07,2.15-4.05,4.32,0,1.14.66,2.22,1.94,2.22.88,0,1.66-.45,2.22-1.36h.04l-.21.95c-.38,1.73-1.23,2.29-2.3,2.29-.67,0-1.3-.18-1.69-.42l-.32.86ZM137.78,54.89c-.24,1.26-1.19,2.44-2.12,2.44s-1.23-.83-1.23-1.53c.01-1.58,1.11-3.25,2.71-3.25.46,0,.86.12,1.05.21l-.41,2.12ZM147.47,55.39l.36,2.81h1.12l-1.23-8.89h-1.29l-4.61,8.89h1.16l1.41-2.81h3.08ZM144.79,54.52l1.33-2.59c.26-.54.49-1.1.73-1.62h.02c.04.53.11,1.18.16,1.64l.34,2.58h-2.59ZM151.23,58.2l1.06-5.53h1.41l.17-.86h-1.43l.05-.3c.18-1.06.61-1.9,1.48-1.9.25,0,.47.04.65.12l.24-.87c-.15-.09-.44-.17-.87-.17-.55,0-1.12.2-1.52.57-.58.52-.9,1.33-1.04,2.23l-.07.33h-.86l-.16.86h.84l-1.04,5.53h1.08ZM154.83,58.2l.53-2.81c.28-1.49,1.12-2.64,2.07-2.64.12,0,.22.02.29.03l.21-1.08c-.08-.01-.21-.03-.3-.03-.86,0-1.54.66-1.95,1.53h-.04c.07-.49.12-.93.17-1.38h-.96c-.07.59-.17,1.44-.33,2.27l-.78,4.12h1.1ZM159.02,58.2l1.23-6.39h-1.09l-1.23,6.39h1.1ZM159.98,50.72c.42,0,.73-.3.74-.74,0-.4-.25-.69-.65-.69s-.73.32-.73.74c0,.4.25.69.63.69M165.24,57.08c-.33.16-.83.36-1.48.36-1.04,0-1.59-.67-1.59-1.7,0-1.51,1.04-3.14,2.71-3.14.47,0,.83.12,1.08.24l.32-.87c-.2-.11-.74-.28-1.33-.28-2.3,0-3.91,2.01-3.91,4.18,0,1.36.8,2.47,2.45,2.47.86,0,1.52-.22,1.85-.38l-.11-.87ZM171.58,58.2c-.02-.71.07-1.85.28-2.96l.65-3.32c-.44-.15-1.11-.25-1.71-.25-2.79,0-4.42,2.35-4.42,4.57,0,1.22.71,2.11,1.83,2.11.91,0,1.78-.47,2.48-1.79h.03c-.08.66-.14,1.26-.14,1.65h1.01ZM170.91,54.56c-.32,1.7-1.4,2.89-2.31,2.89-.85,0-1.09-.7-1.09-1.41.01-1.77,1.36-3.5,3.01-3.5.37,0,.61.05.77.09l-.37,1.93Z"/>
    </g>
  </g>
</svg>