<?xml version="1.0" encoding="UTF-8"?>
<svg id="Layer_2" data-name="Layer 2" xmlns="http://www.w3.org/2000/svg" viewBox="0 0 186.98 186.98">
  <defs>
    <style>
      .cls-1 {
        fill: #fff;
      }
    </style>
  </defs>
  <g id="Layer_1-2" data-name="Layer 1">
    <g>
      <path class="cls-1" d="M174.36,174.36c-7.32,7.32-17.24,11.36-27.57,11.97-34.56,2.06-71.08-1.55-105.85.02-22.84-1.17-39.13-17.47-40.31-40.31,1.57-34.76-2.03-71.29.02-105.85C1.96,18.22,18.22,1.96,40.2.65c34.56-2.06,71.08,1.55,105.85-.02,22.24.83,38.97,17.39,40.29,39.57,2.06,34.56-1.55,71.08.02,105.85-.46,10.64-4.46,20.77-12,28.31ZM37.25,10.69c-14.05,1.88-25.02,13.17-26.66,27.21v111.17c1.67,14.42,13.19,25.87,27.68,27.34l110.81-.02c14.42-1.67,25.87-13.19,27.34-27.68l-.02-110.81c-1.66-14.32-13-25.65-27.32-27.32l-111.83.11Z"/>
      <path class="cls-1" d="M33.02,32.07c9.28.49,19.83-.96,28.96-.11,2.55.24,3.14,1.14,4.75,2.89l33.82,42.2,34.81-43.51c4.2-4.13,10.53.72,7.74,5.83l-35.08,43.62-1.1,1.83,49.77,62.18c2.39,3.65.57,7.6-3.78,8.01-6.8.64-21.12.64-27.92,0-2.55-.24-3.14-1.14-4.75-2.89l-33.82-42.2-34.81,43.51c-4.2,4.13-10.53-.72-7.74-5.83l35.08-43.62,1.1-1.83L30.13,39.75c-1.98-3.07-.6-6.76,2.89-7.68ZM142.78,145.45l-9.56-12.41L59.68,41.53h-15.47l3.45,4.77,79.65,99.16h15.47Z"/>
    </g>
  </g>
</svg>