<?xml version="1.0" encoding="UTF-8"?>
<svg id="Layer_2" data-name="Layer 2" xmlns="http://www.w3.org/2000/svg" viewBox="0 0 511 485.05">
  <defs>
    <style>
      .cls-1 {
        fill: #be1e2d;
      }
    </style>
  </defs>
  <g id="Layer_1-2" data-name="Layer 1">
    <g id="CBMheH">
      <path class="cls-1" d="M0,455.11h84.83V123.76h-16.97v-16.97H5.99V16.97h61.88V0h123.76v16.97h175.16l89.33,89.82h-74.85v48.9h-29.94v-48.9h-159.69v16.97h-16.97v331.35h86.83v-179.65h56.39l47.91,47.91h53.4v-124.76h76.85v256.5h14.97v29.94H0v-29.94ZM67.87,46.91h-31.94v29.94h31.94v-29.94ZM240.53,76.85c-3.92-3.17-27.34-29.94-29.44-29.94h-19.46v29.94h48.9ZM311.39,46.91h-56.89l28.44,28.93,28.44-28.93ZM383.25,76.85l-29.31-28.87-28.58,28.87h57.89ZM144.72,123.76h-29.94v36.93h29.94v-36.93ZM144.72,190.63h-29.94v67.87h29.94v-67.87ZM144.72,288.44h-29.94v67.87h29.94v-67.87ZM353.31,379.26h-29.94v46.91h29.94v-46.91ZM445.13,379.26h-29.94v46.91h29.94v-46.91ZM144.72,386.25h-29.94v68.87h29.94v-68.87Z"/>
    </g>
  </g>
</svg>