<?xml version="1.0" encoding="UTF-8"?>
<svg id="Layer_2" data-name="Layer 2" xmlns="http://www.w3.org/2000/svg" viewBox="0 0 511 385.02">
  <defs>
    <style>
      .cls-1 {
        fill: #be1e2d;
      }
    </style>
  </defs>
  <g id="Layer_1-2" data-name="Layer 1">
    <g id="hknXet">
      <g>
        <path class="cls-1" d="M0,255.5c6.63-4.12,12.29-11.67,18.45-15.98.85-.59,1-1.38,2.5-.98l8.01,32.42-28.96.51v-15.97Z"/>
        <path class="cls-1" d="M134.39,310.05c-4.98,5.08-20.15,8.26-27.22,9.2-2.3.31-5.02-.29-6.82.06-1.13.22-.18,2.53-.6,2.95-.68.67-5.49-.33-5.93.11-1.03,1.02.45,25.4.46,28.99l39.49,12.41c1.41,1.24.73,3.76,1.51,5.48.92,2.03,4.08,2.88,4.46,6.61,1.5,14.71-25.66,9.56-12.97-6.57l-32.42-10.01c-.85-.01-.72,7.95-.31,9.3,1.08,3.58,8.16,6.1,2.82,13.2-5.91,7.85-18.1-.27-13.76-8.78.92-1.8,3.11-2.91,3.56-4.42.81-2.68-.12-6.42.19-9.28l-32.93,9.99c9.28,8.91-3.39,21.83-11,12.49-6.05-7.42,3.45-10.72,3.98-18.02l39.5-12.4c.01-3.67,1.49-27.97.46-28.99-.45-.44-5.26.56-5.93-.11-.42-.42.53-2.73-.6-2.95-1.79-.34-4.52.25-6.82-.06-9.43-1.25-26.03-4.31-30.06-13.85l-31.23-123.54c-.38-7.65,3.88-11.54,11.23-12.23,18.99-1.77,40.65,1.42,59.94.02,5.5.5,9.18,5.67,10.17,10.79l29.4,119.31c1.34,3.51,20.36,1.22,11.45,10.31Z"/>
        <path class="cls-1" d="M464.75,310.06c-5.1,5.1-20.07,8.24-27.23,9.19-2.3.31-5.02-.29-6.82.06-1.13.22-.18,2.53-.6,2.95-.68.67-5.49-.33-5.93.11-1.03,1.02.45,25.4.46,28.99l39.5,12.4c1.37,1.07.72,3.76,1.5,5.49.91,2.03,4.08,2.88,4.46,6.61,1.5,14.71-25.66,9.56-12.97-6.57l-32.42-10.01c-4.69,9.37,8.86,14.91,1.95,22.94-6.05,7.04-17.63-.51-13.21-9.22.92-1.81,3.11-2.9,3.57-4.42.81-2.68-.12-6.42.19-9.28l-33.92,9.99c-.09,1.55,1.93,1.14,2.91,2.56,5.48,7.94-5.19,17.85-12.46,10.46-7.03-7.14,2.93-11.36,3.52-18.55l38.29-11.61c.77-.24,1.26-.7,1.52-1.47.45-1.34,1.15-27.32.14-28.31-.45-.44-5.26.56-5.93-.11-.42-.42.53-2.73-.6-2.95-1.79-.34-4.52.25-6.82-.06-6.24-.83-29.45-5.43-29.6-13.39-.08-4.36,12.67-3.08,13.83-6.13l29.84-120.87c1.02-4.03,4.02-7.52,7.98-8.99l63.57-.12c5.91.54,10.16,6.42,9.36,12.1-12.12,38.39-17.42,81.9-30.01,119.77-.91,2.73-1.98,6.36-4.05,8.43Z"/>
        <path class="cls-1" d="M413.19,181.65l-28.63,114.54c-1.45,3.12-19.59,2.07-12.7,14.13,4.13,7.23,16.9,8.41,18.86,11.07.99,1.34,6.49,31.57,5.4,32.83-3.04,1.13-23.08,6.15-23.72,7.21s.09,8.41-4.11,9.84l-10.99-62.87h-13.97l9.85,54.52c2.72,20.01-24.46,26.66-30.52,6.57-6.84-22.64-7.3-51.23-13.3-74.54-2.23-6.24,6.8-17.5,12.52-17.5h34.43v-47.91l-8.96,14.49c-1.64,1.75-3.16,2.23-5.49,2.49-7.06.82-39.7,1.12-45.72-.23-7.97-1.79-9.06-13.51-2.23-17.78,8.05-5.03,30.53.1,40.45-2.46,10.67-13.83,15.74-33.51,29.44-44.42h49.4Z"/>
        <path class="cls-1" d="M147.21,181.65c8,1.73,22.87,37.34,29.44,44.42,9.93,2.56,32.4-2.57,40.45,2.46,6.83,4.27,5.74,15.99-2.23,17.78-6.03,1.35-38.66,1.05-45.72.23-2.33-.27-3.85-.74-5.49-2.49l-8.96-14.49v47.91h34.43c5.73,0,14.75,11.26,12.52,17.5-6.01,23.31-6.47,51.9-13.3,74.54-6.07,20.09-33.24,13.43-30.52-6.57l9.85-54.52h-13.97l-10.99,62.87c-4.2-1.43-3.44-8.73-4.11-9.84s-20.7-6.24-23.72-7.21c-1.08-1.27,4.42-31.49,5.4-32.83,1.59-2.19,14.82-3.98,18.87-11.07,6.89-12.06-11.25-11-12.7-14.13l-28.63-114.54h49.4Z"/>
        <path class="cls-1" d="M322.37,84.83v78.85h-42.92v14.97c0,.45,7.42-.73,9.05.43s.65,5.56.93,5.56h62.88l-13.13,23.79-166.85.2-13.64-23.99h62.88c.28,0-.75-4.35.93-5.56s10.04.07,10.04-.43v-14.97h-43.91v-78.85h133.74ZM316.38,89.82h-121.76v67.87h121.76v-67.87Z"/>
        <path class="cls-1" d="M350.32,249.51v21.96h-189.63v-21.96c3.42.74,5.76,2.59,9.48,3,9.43,1.02,41.89,1.07,49.46-2.44,1.79-.83,3.3-2.95,4.64-3.34,3.26-.95,57.18-1.04,61.65-.19,1.93.37,4.33,3.06,6.82,4.16,6.27,2.76,39.94,2.7,48.09,1.81,3.72-.4,6.06-2.25,9.48-3Z"/>
        <path class="cls-1" d="M96.97,177.49c-2.9-8.53-9.17-9.34-10.13-19.31-4.68-48.93,72.78-45.45,62.42,4.56-.92,4.43-6.17,14.33-10.99,14.96-12.39,1.63-28.52-1.18-41.31-.21Z"/>
        <path class="cls-1" d="M414.03,177.49c-12.79-.96-28.93,1.84-41.31.21-4.82-.63-10.07-10.53-10.99-14.96-10.36-50.01,67.1-53.49,62.42-4.56-.95,9.97-7.22,10.78-10.13,19.31Z"/>
        <path class="cls-1" d="M460.1,0v79.84h-133.74V0h133.74ZM454.11,5.99h-121.76v67.87h121.76V5.99Z"/>
        <path class="cls-1" d="M322.37,0v79.84h-133.74V0h133.74ZM316.38,5.99h-121.76v67.87h121.76V5.99Z"/>
        <path class="cls-1" d="M184.64,0v79.84H50.9V0h133.74ZM178.65,5.99H56.89v67.87h121.76V5.99Z"/>
        <path class="cls-1" d="M335.35,212.58c.91.85-3.09,8.53-5.48,8.99-3.11.59-17.64.52-21.03.07-1.74-.23-1.19-3.03-6.98-2.15-1.79.27-1.22,1.64-2.19,1.99-6.41,2.36-5.66-1.61-6.93-1.95-6.49-1.71-9.78,2.37-2.3,4.52-5.75,4.58-6.86,10.52-6.52,17.48l-57.35-.02c1.59-6.79-.61-13.03-5.98-17.47,7.47-2.14,4.19-6.23-2.3-4.52-1.27.34-.52,4.3-6.93,1.95-.96-.35-.39-1.72-2.19-1.99-5.79-.88-5.24,1.92-6.98,2.15-3.39.44-17.92.51-21.03-.07-2.47-.47-5.36-6.23-5.48-8.99h159.69ZM238.53,219.58c-.96-.95-9.59-.57-7.98,3.98,1.8,1.27,11.09-.92,7.98-3.98ZM252.5,223.56c1.2-4.96-7.04-5.93-7.96-1.47-.61,2.95,6.51.9,7.96,1.47ZM265.32,219.73c-2.2-1.34-8.26-.11-6.82,3.83h7.98c.35-.33-.8-3.61-1.15-3.83ZM279.3,219.73c-1.22-.75-4.63.16-6.32-.16-2.2,4.94,4.06,4.12,7.47,3.99.35-.32-.8-3.62-1.15-3.83ZM229.55,234.54c2.25.14,9.36.9,7.98-3.48-.94-2.98-10.27-2.31-7.98,3.48ZM251.51,229.55h-7v5h7v-5ZM266.48,229.55h-7v5h7v-5ZM281.45,234.54c2.29-5.79-7.04-6.46-7.98-3.48-1.38,4.38,5.73,3.62,7.98,3.48Z"/>
        <path class="cls-1" d="M184.64,84.83v78.85h-29.94c-.18-.94.69-5.99,1-5.99h22.96v-67.87H56.89v67.87h23.45c1.53,0,1.76,4.56,1.5,5.99h-30.94v-78.85h133.74Z"/>
        <path class="cls-1" d="M460.1,84.83v78.85h-30.94c-.26-1.43-.03-5.99,1.5-5.99h23.45v-67.87h-121.76v67.87h22.96c.3,0,1.18,5.04,1,5.99h-29.94v-78.85h133.74Z"/>
        <path class="cls-1" d="M511,271.47h-28.94l8-32.93c1.5-.4,1.65.38,2.5.98,6.12,4.29,12.28,11.84,18.45,16.48v15.47Z"/>
        <path class="cls-1" d="M119.63,371.41c.54.82.34,6.47-.36,7.84-2.93-2.67-5.94-5.81-6.49-9.97.26-.26,6.65,1.83,6.85,2.13Z"/>
        <path class="cls-1" d="M398.22,369.28c1.1,1.09-4.7,9.57-6.97,9.98-.67-7.48-.62-8.77,6.97-9.98Z"/>
      </g>
    </g>
  </g>
</svg>