<?xml version="1.0" encoding="UTF-8"?>
<svg id="Layer_2" data-name="Layer 2" xmlns="http://www.w3.org/2000/svg" viewBox="0 0 426.01 395.66">
  <defs>
    <style>
      .cls-1 {
        fill: #be1e2d;
      }
    </style>
  </defs>
  <g id="Layer_1-2" data-name="Layer 1">
    <g id="OGRxop">
      <g>
        <path class="cls-1" d="M306.82,67.65v31.94c15.47-1.15,30.27,2.88,40.43,14.96,7.86,9.34,8.79,18.28,11.15,29.77,11.49,55.82,18.87,112.61,30.13,168.49,3.71,24.43-12.25,47.24-37.25,49.32H73.74c-21.62-2.55-36.82-20.77-37.12-42.18l34.17-190.4c6.49-21.57,26.49-31.94,48.4-29.95v-31.94H50.82c-14.55,0-35.04-16.51-42.22-28.64C4.15,31.5-6.36,3.9,5.36.23l414.53-.23c13.12,2.93,1.79,32-2.86,39.63-7.22,11.86-27.55,28.03-41.84,28.03h-68.37ZM202.82,156.78c-33.81,3.63-62.24,34.38-64.66,68.08-4.72,65.7,71.89,106.71,122.76,63.87,57.29-48.25,17.68-140.1-58.1-131.96Z"/>
        <path class="cls-1" d="M91.95,378.26c4.2-.94,37.31-.94,41.49,0,8.79,1.97,8.5,14.07.19,16.73-12.01-1.58-30.5,2.31-41.68-.19-7.77-1.74-7.77-14.8,0-16.54Z"/>
        <path class="cls-1" d="M292.56,378.26c4.18-.94,37.31-.93,41.49,0,7.92,1.77,7.95,15.32-.84,16.69-12.18,1.9-28.97-1.12-41.65-.15-7.6-3.48-7.39-14.67,1-16.55Z"/>
        <path class="cls-1" d="M232.68,200.6c8.01-1.82,14.08,4.57,10.14,12.14l-25.83,26.05c-8.61,2.63-15.81-4.46-10.81-12.81,1.75-2.92,19.6-20.76,22.78-23.12,1.24-.92,2.05-1.89,3.73-2.27Z"/>
      </g>
    </g>
  </g>
</svg>